<svg xmlns="http://www.w3.org/2000/svg" width="1em" height="1em" preserveAspectRatio="xMidYMid meet" viewBox="0 0 16 16">
    <rect x="0" y="0" width="16" height="16" fill="none" stroke="none" />
    <g fill="#0369a1" fill-rule="evenodd">
        <path d="M13.637 2.363L13.302.687a.25.25 0 0 0-.422-.128l-1.374 1.374a.875.875 0 0 0-.256.619v1.137L8.389 6.551A1.502 1.502 0 0 0 6.5 8a1.5 1.5 0 1 0 2.95-.389l2.86-2.861h1.138a.875.875 0 0 0 .619-.256L15.44 3.12a.25.25 0 0 0-.128-.422l-1.676-.335z" />
        <path d="M2 8a6 6 0 0 1 7.656-5.769a.75.75 0 0 0 .413-1.442a7.5 7.5 0 1 0 5.142 5.142a.75.75 0 1 0-1.442.413A6 6 0 1 1 2 8z" />
        <path d="M5 8a3 3 0 0 1 3.346-2.98a.75.75 0 1 0 .17-1.49a4.5 4.5 0 1 0 3.953 3.947a.75.75 0 1 0-1.49.172A3 3 0 1 1 5 8z" />
    </g>
</svg>