<?xml version="1.0" encoding="UTF-8" standalone="no"?>
<!-- Created with Inkscape (http://www.inkscape.org/) -->

<svg
   width="156.13982mm"
   height="199.36948mm"
   viewBox="0 0 156.13982 199.36948"
   version="1.1"
   id="svg5"
   xmlns="http://www.w3.org/2000/svg"
   xmlns:svg="http://www.w3.org/2000/svg">
  <defs
     id="defs2">
    <linearGradient
       id="linearGradient3471">
      <stop
         style="stop-color:#ffff00;stop-opacity:1;"
         offset="0"
         id="stop3467" />
      <stop
         style="stop-color:#ffff00;stop-opacity:0;"
         offset="1"
         id="stop3469" />
    </linearGradient>
    <clipPath
       clipPathUnits="userSpaceOnUse"
       id="clipPath9822">
      <g
         id="use9824">
        <path
           style="color:#000000;fill:#010000;stroke-width:1.365;stroke-linejoin:round;-inkscape-stroke:none"
           d="m -96.353181,222.41437 38.13046,-23.89159 -15.080751,42.85921 -24.404438,-4.63116 z"
           id="path14538"
           transform="rotate(-45.961462)" />
        <path
           style="color:#000000;fill:#ff0000;stroke-linejoin:round;-inkscape-stroke:none"
           d="m 132.84728,221.8509 a 29.142431,29.155342 0 0 1 -28.99673,29.30001 29.142431,29.155342 0 0 1 -29.287409,-29.0092 29.142431,29.155342 0 0 1 28.995959,-29.30076 29.142431,29.155342 0 0 1 29.28817,29.00843"
           id="path14540" />
      </g>
    </clipPath>
    <clipPath
       clipPathUnits="userSpaceOnUse"
       id="clipPath9822-6">
      <g
         id="use9824-7">
        <path
           style="color:#000000;fill:#010000;stroke-width:1.365;stroke-linejoin:round;-inkscape-stroke:none"
           d="m -96.353181,222.41437 38.13046,-23.89159 -15.080751,42.85921 -24.404438,-4.63116 z"
           id="path14454"
           transform="rotate(-45.961462)" />
      </g>
    </clipPath>
    <clipPath
       clipPathUnits="userSpaceOnUse"
       id="clipPath33095">
      <g
         id="use33097"
         style="fill:none;stroke:#000000;stroke-width:1.1;stroke-miterlimit:4;stroke-dasharray:none;stroke-opacity:1;paint-order:markers fill stroke">
        <g
           id="g45351"
           transform="matrix(0.0249451,-0.4217452,0.4217452,0.0249451,24.949569,228.73115)"
           style="fill:none;stroke:#000000;stroke-width:2.60366;stroke-miterlimit:4;stroke-dasharray:none;stroke-opacity:1;paint-order:markers fill stroke">
          <g
             id="g45349"
             style="fill:none;stroke:#000000;stroke-opacity:1">
            <path
               style="color:#000000;fill:none;fill-opacity:0.997938;stroke:#000000;stroke-width:2.60366;stroke-linejoin:round;stroke-opacity:1;-inkscape-stroke:none"
               d="m 140.9043,230.1543 c -0.0472,-9.44729 -7.36151,-21.50155 -15.78678,-31.47891 -10.69496,-12.66517 -23.03939,-22.28736 -23.03939,-22.28736 v 5e-5 c 0,0 -18.903112,18.96336 -25.70804,25.15054 -7.865271,7.15127 -12.786639,17.50778 -12.729465,29.0024 0.106641,21.4396 17.493391,38.74757 38.824215,38.64062 21.33083,-0.10695 38.54554,-17.58774 38.43946,-39.02734 l -0.42446,-0.0136"
               id="path45345" />
            <path
               style="color:#000000;fill:none;fill-opacity:0.997938;stroke:#000000;stroke-linejoin:round;stroke-opacity:1;-inkscape-stroke:none"
               d="m 101.50781,175.21875 a 1.30196,1.30196 0 0 0 -0.73242,1.16992 l 0.38086,-0.91992 c 0,0 -18.948948,19.00368 -25.662109,25.10742 -8.128152,7.39029 -13.215292,18.10064 -13.15625,29.9707 0.110124,22.1399 18.094281,40.048 40.132809,39.9375 22.03851,-0.11049 39.84588,-18.19602 39.73633,-40.33593 -0.0505,-10.11366 -7.57659,-22.22401 -16.0957,-32.3125 -10.80384,-12.7941 -23.23242,-22.47461 -23.23242,-22.47461 a 1.30196,1.30196 0 0 0 -1.3711,-0.14258 z m 0.64063,2.9375 c 1.3043,1.03135 12.0072,9.55578 21.97461,21.35937 8.33141,9.86621 15.43464,21.86364 15.47851,30.64454 l 0.87696,-0.004 -0.0274,0.875 -0.84961,-0.87109 c 0.10262,20.73924 -16.51947,37.61534 -37.14258,37.71875 -20.62307,0.1034 -37.412463,-16.60449 -37.515621,-37.34375 -0.05531,-11.11916 4.70036,-21.12097 12.302735,-28.03321 6.611041,-6.01089 23.455666,-22.89499 24.902346,-24.3457 z"
               id="path45347" />
          </g>
        </g>
        <g
           id="g45359"
           transform="matrix(0.00703704,0.42242366,-0.42242366,0.00703704,175.67891,145.71874)"
           style="fill:none;stroke:#000000;stroke-width:2.60366;stroke-miterlimit:4;stroke-dasharray:none;stroke-opacity:1;paint-order:markers fill stroke">
          <g
             id="g45357"
             style="fill:none;stroke:#000000;stroke-opacity:1">
            <path
               style="color:#000000;fill:none;fill-opacity:0.997938;stroke:#000000;stroke-width:2.60366;stroke-linejoin:round;stroke-opacity:1;-inkscape-stroke:none"
               d="m 140.9043,230.1543 c -0.0472,-9.44729 -7.36151,-21.50155 -15.78678,-31.47891 -10.69496,-12.66517 -23.03939,-22.28736 -23.03939,-22.28736 v 5e-5 c 0,0 -0.15588,0.15637 -0.44442,0.44535 -0.002,0.002 -0.004,0.004 -0.006,0.006 -2.905636,2.91004 -19.07487,19.07768 -25.25749,24.69904 -7.865273,7.15127 -12.786639,17.50778 -12.729465,29.0024 0.106641,21.4396 17.493391,38.74757 38.824215,38.64062 21.33083,-0.10695 38.54554,-17.58774 38.43946,-39.02734 l -0.42446,-0.0136"
               id="path45353" />
            <path
               style="color:#000000;fill:none;fill-opacity:0.997938;stroke:#000000;stroke-linejoin:round;stroke-opacity:1;-inkscape-stroke:none"
               d="m 101.50781,175.21875 a 1.3019602,1.3019602 0 0 0 -0.73242,1.16992 l 0.38086,-0.91992 c 0,0 -0.15509,0.1566 -0.44336,0.44531 l -0.006,0.004 a 1.3019602,1.3019602 0 0 0 0,0.002 c -2.902882,2.90728 -19.113645,19.1107 -25.212889,24.65625 -8.128154,7.39029 -13.213339,18.10064 -13.154297,29.9707 0.110124,22.1399 18.092328,40.04605 40.130856,39.93555 22.03851,-0.1105 39.84588,-18.19407 39.73633,-40.33398 -0.0505,-10.11366 -7.57659,-22.22401 -16.0957,-32.3125 -10.80384,-12.7941 -23.23242,-22.47461 -23.23242,-22.47461 a 1.3019602,1.3019602 0 0 0 -1.3711,-0.14258 z m 0.63867,2.93555 c 1.30147,1.02907 12.00767,9.55597 21.97657,21.36132 8.33141,9.86621 15.43464,21.86364 15.47851,30.64454 h 0.002 l 0.875,-0.004 -0.0274,0.875 -0.84765,-0.87109 c 0.10261,20.73924 -16.52143,37.61534 -37.14454,37.71875 -20.62307,0.1034 -37.412463,-16.60449 -37.515621,-37.34375 -0.05531,-11.11916 4.700358,-21.12097 12.302735,-28.03321 6.16621,-5.60644 21.629772,-21.07286 24.900386,-24.34765 z"
               id="path45355" />
          </g>
        </g>
      </g>
    </clipPath>
    <clipPath
       clipPathUnits="userSpaceOnUse"
       id="clipPath33095-3">
      <g
         id="use33097-1"
         style="fill:none;stroke:#f9d800;stroke-width:1.1;stroke-miterlimit:4;stroke-dasharray:none;stroke-opacity:1;paint-order:markers fill stroke">
        <g
           id="g43405"
           transform="matrix(0.0249451,-0.4217452,0.4217452,0.0249451,24.949569,228.73115)"
           style="fill:none;stroke:#f9d800;stroke-width:2.60366;stroke-miterlimit:4;stroke-dasharray:none;stroke-opacity:1;paint-order:markers fill stroke">
          <g
             id="g43403"
             style="fill:none;stroke:#f9d800;stroke-opacity:1">
            <path
               style="color:#000000;fill:none;fill-opacity:0.997938;stroke:#f9d800;stroke-width:2.60366;stroke-linejoin:round;stroke-opacity:1;-inkscape-stroke:none"
               d="m 140.9043,230.1543 c -0.0472,-9.44729 -7.36151,-21.50155 -15.78678,-31.47891 -10.69496,-12.66517 -23.03939,-22.28736 -23.03939,-22.28736 v 5e-5 c 0,0 -18.903112,18.96336 -25.70804,25.15054 -7.865271,7.15127 -12.786639,17.50778 -12.729465,29.0024 0.106641,21.4396 17.493391,38.74757 38.824215,38.64062 21.33083,-0.10695 38.54554,-17.58774 38.43946,-39.02734 l -0.42446,-0.0136"
               id="path43399" />
            <path
               style="color:#000000;fill:none;fill-opacity:0.997938;stroke:#f9d800;stroke-linejoin:round;stroke-opacity:1;-inkscape-stroke:none"
               d="m 101.50781,175.21875 a 1.30196,1.30196 0 0 0 -0.73242,1.16992 l 0.38086,-0.91992 c 0,0 -18.948948,19.00368 -25.662109,25.10742 -8.128152,7.39029 -13.215292,18.10064 -13.15625,29.9707 0.110124,22.1399 18.094281,40.048 40.132809,39.9375 22.03851,-0.11049 39.84588,-18.19602 39.73633,-40.33593 -0.0505,-10.11366 -7.57659,-22.22401 -16.0957,-32.3125 -10.80384,-12.7941 -23.23242,-22.47461 -23.23242,-22.47461 a 1.30196,1.30196 0 0 0 -1.3711,-0.14258 z m 0.64063,2.9375 c 1.3043,1.03135 12.0072,9.55578 21.97461,21.35937 8.33141,9.86621 15.43464,21.86364 15.47851,30.64454 l 0.87696,-0.004 -0.0274,0.875 -0.84961,-0.87109 c 0.10262,20.73924 -16.51947,37.61534 -37.14258,37.71875 -20.62307,0.1034 -37.412463,-16.60449 -37.515621,-37.34375 -0.05531,-11.11916 4.70036,-21.12097 12.302735,-28.03321 6.611041,-6.01089 23.455666,-22.89499 24.902346,-24.3457 z"
               id="path43401" />
          </g>
        </g>
        <g
           id="g43413"
           transform="matrix(0.00703704,0.42242366,-0.42242366,0.00703704,175.67891,145.71874)"
           style="fill:none;stroke:#f9d800;stroke-width:2.60366;stroke-miterlimit:4;stroke-dasharray:none;stroke-opacity:1;paint-order:markers fill stroke">
          <g
             id="g43411"
             style="fill:none;stroke:#f9d800;stroke-opacity:1">
            <path
               style="color:#000000;fill:none;fill-opacity:0.997938;stroke:#f9d800;stroke-width:2.60366;stroke-linejoin:round;stroke-opacity:1;-inkscape-stroke:none"
               d="m 140.9043,230.1543 c -0.0472,-9.44729 -7.36151,-21.50155 -15.78678,-31.47891 -10.69496,-12.66517 -23.03939,-22.28736 -23.03939,-22.28736 v 5e-5 c 0,0 -0.15588,0.15637 -0.44442,0.44535 -0.002,0.002 -0.004,0.004 -0.006,0.006 -2.905636,2.91004 -19.07487,19.07768 -25.25749,24.69904 -7.865273,7.15127 -12.786639,17.50778 -12.729465,29.0024 0.106641,21.4396 17.493391,38.74757 38.824215,38.64062 21.33083,-0.10695 38.54554,-17.58774 38.43946,-39.02734 l -0.42446,-0.0136"
               id="path43407" />
            <path
               style="color:#000000;fill:none;fill-opacity:0.997938;stroke:#f9d800;stroke-linejoin:round;stroke-opacity:1;-inkscape-stroke:none"
               d="m 101.50781,175.21875 a 1.3019602,1.3019602 0 0 0 -0.73242,1.16992 l 0.38086,-0.91992 c 0,0 -0.15509,0.1566 -0.44336,0.44531 l -0.006,0.004 a 1.3019602,1.3019602 0 0 0 0,0.002 c -2.902882,2.90728 -19.113645,19.1107 -25.212889,24.65625 -8.128154,7.39029 -13.213339,18.10064 -13.154297,29.9707 0.110124,22.1399 18.092328,40.04605 40.130856,39.93555 22.03851,-0.1105 39.84588,-18.19407 39.73633,-40.33398 -0.0505,-10.11366 -7.57659,-22.22401 -16.0957,-32.3125 -10.80384,-12.7941 -23.23242,-22.47461 -23.23242,-22.47461 a 1.3019602,1.3019602 0 0 0 -1.3711,-0.14258 z m 0.63867,2.93555 c 1.30147,1.02907 12.00767,9.55597 21.97657,21.36132 8.33141,9.86621 15.43464,21.86364 15.47851,30.64454 h 0.002 l 0.875,-0.004 -0.0274,0.875 -0.84765,-0.87109 c 0.10261,20.73924 -16.52143,37.61534 -37.14454,37.71875 -20.62307,0.1034 -37.412463,-16.60449 -37.515621,-37.34375 -0.05531,-11.11916 4.700358,-21.12097 12.302735,-28.03321 6.16621,-5.60644 21.629772,-21.07286 24.900386,-24.34765 z"
               id="path43409" />
          </g>
        </g>
      </g>
    </clipPath>
  </defs>
  <g
     id="layer1"
     transform="translate(-275.23549,-116.44179)"
     style="stroke:#0284c7">
    <path
       id="path47980"
       style="opacity:1;fill:none;fill-opacity:0.943636;stroke:#0284c7;stroke-width:10.5833;stroke-linejoin:bevel;stroke-miterlimit:4;stroke-dasharray:none;paint-order:markers fill stroke"
       d="m 332.04707,301.70772 c -11.7935,11.7935 -30.91455,11.7935 -42.70804,0 -11.7935,-11.7935 -11.7935,-30.91454 0,-42.70804 11.7935,-11.7935 30.91454,-11.7935 42.70804,0 5.89675,5.89675 21.25832,21.69377 21.25832,21.69377 0,0 -15.36157,15.11752 -21.25832,21.01427 z" />
    <path
       id="path47980-1"
       style="opacity:1;fill:none;fill-opacity:0.943636;stroke:#0284c7;stroke-width:10.5833;stroke-linejoin:bevel;stroke-miterlimit:4;stroke-dasharray:none;paint-order:markers fill stroke"
       d="m 374.56372,301.70772 c 11.7935,11.7935 30.91455,11.7935 42.70804,0 11.79349,-11.7935 11.79349,-30.91454 0,-42.70804 -11.7935,-11.7935 -30.91454,-11.7935 -42.70804,0 -5.89675,5.89675 -21.25833,21.69377 -21.25833,21.69377 0,0 15.36157,15.11752 21.25833,21.01427 z" />
    <path
       style="opacity:1;fill:none;fill-opacity:0.943636;stroke:#0284c7;stroke-width:40;stroke-linecap:square;stroke-linejoin:round;stroke-miterlimit:4;stroke-dasharray:none;stroke-opacity:1;paint-order:markers fill stroke"
       id="path49336"
       d="m 1252.5563,568.0968 245.6791,425.52869 -491.3582,-10e-6 z"
       transform="matrix(0.26458332,0,0,0.26458332,20.650436,-28.576012)" />
    <ellipse
       style="opacity:1;fill:none;fill-opacity:0.943636;stroke:#0284c7;stroke-width:4.62018;stroke-linecap:square;stroke-linejoin:round;stroke-miterlimit:4;stroke-dasharray:none;stroke-opacity:1;paint-order:markers fill stroke"
       id="path49530"
       cx="352.05594"
       cy="196.79146"
       rx="6.950325"
       ry="6.9503255" />
    <ellipse
       style="opacity:1;fill:#f2f2f2;fill-opacity:0.943636;stroke:#0284c7;stroke-width:0.264583;stroke-linecap:square;stroke-linejoin:round;stroke-miterlimit:4;stroke-dasharray:none;stroke-opacity:1;paint-order:markers fill stroke"
       id="path49634"
       cx="352.05594"
       cy="196.79146"
       rx="1.348732"
       ry="1.34873" />
  </g>
</svg>
